<svg width="12" height="12" viewBox="0 0 12 12" fill="none" xmlns="http://www.w3.org/2000/svg">
<path fill-rule="evenodd" clip-rule="evenodd" d="M6.29835 5.31051C6.29835 4.34316 6.58842 3.5197 6.94063 3.5197C7.29283 3.5197 7.58291 4.34316 7.58291 5.31051C7.58291 6.2985 7.29283 7.10132 6.94063 7.10132C6.58842 7.10132 6.29835 6.2985 6.29835 5.31051ZM3.64631 5.37223C3.64631 4.38424 3.93659 3.58163 4.28859 3.58163C4.6408 3.58163 4.93108 4.38424 4.93108 5.37223C4.93108 6.36023 4.6408 7.16305 4.28859 7.16305C3.93659 7.16305 3.64631 6.36023 3.64631 5.37223ZM8.63952 5.33115L9.36471 5.22814C9.77905 8.15104 8.1215 10.0857 5.61471 10.0857C3.10772 10.0857 1.45038 8.15104 1.86471 5.22814L2.56912 5.33115C2.11323 7.73921 3.52205 9.34485 5.61471 9.34485C7.66582 9.34485 9.05407 7.73921 8.63952 5.33115ZM10.4629 5.98968C10.4629 3.10807 8.3081 0.782178 5.63529 0.782178C2.96268 0.782178 0.808097 3.10807 0.808097 5.98968C0.808097 8.87129 2.96268 11.2178 5.63529 11.2178C8.3081 11.2178 10.4629 8.87129 10.4629 5.98968ZM0 5.98968C0 2.69644 2.52757 0 5.63529 0C8.72243 0 11.25 2.69644 11.25 5.98968C11.25 9.30377 8.72243 12 5.63529 12C2.52757 12 0 9.30377 0 5.98968Z" fill="white"/>
</svg>
