<svg width="71" height="76" viewBox="0 0 71 76" fill="none" xmlns="http://www.w3.org/2000/svg">
<path fill-rule="evenodd" clip-rule="evenodd" d="M39.6096 33.3973C39.6096 27.3138 41.4338 22.1351 43.6488 22.1351C45.8638 22.1351 47.688 27.3138 47.688 33.3973C47.688 39.6107 45.8638 44.6595 43.6488 44.6595C41.4338 44.6595 39.6096 39.6107 39.6096 33.3973ZM22.9312 33.7853C22.9312 27.5719 24.7567 22.5243 26.9704 22.5243C29.1854 22.5243 31.0109 27.5719 31.0109 33.7853C31.0109 39.9986 29.1854 45.0475 26.9704 45.0475C24.7567 45.0475 22.9312 39.9986 22.9312 33.7853ZM54.3329 33.5271L58.8936 32.8793C61.4993 51.261 51.0751 63.4281 35.3102 63.4281C19.544 63.4281 9.12118 51.261 11.7269 32.8793L16.1568 33.5271C13.2898 48.671 22.1497 58.7687 35.3102 58.7687C48.2094 58.7687 56.9399 48.671 54.3329 33.5271ZM65.8 37.6684C65.8 19.5462 52.2488 4.91896 35.4397 4.91896C18.632 4.91896 5.08209 19.5462 5.08209 37.6684C5.08209 55.7905 18.632 70.5476 35.4397 70.5476C52.2488 70.5476 65.8 55.7905 65.8 37.6684ZM0 37.6684C0 16.9576 15.8956 0 35.4397 0C54.8544 0 70.75 16.9576 70.75 37.6684C70.75 58.5103 54.8544 75.4667 35.4397 75.4667C15.8956 75.4667 0 58.5103 0 37.6684Z" fill="#ED2524"/>
</svg>
