<svg width="16" height="16" viewBox="0 0 16 16" fill="none" xmlns="http://www.w3.org/2000/svg">
<g clip-path="url(#clip0_317_10)">
<rect width="16" height="16" fill="#FFCD4C"/>
<path d="M4.0363 12.144C5.9803 12.144 6.5563 10.932 6.5563 9.804V3.6H5.0563V9.636C5.0563 10.356 4.8883 10.932 4.0483 10.932C3.1243 10.932 2.9563 10.272 2.9563 9.408V8.832H1.4563V9.528C1.4563 11.208 2.3443 12.144 4.0363 12.144ZM12.9118 7.692C13.5958 7.356 14.0398 6.744 14.0398 5.88C14.0398 3.84 12.3118 3.6 10.7518 3.6H7.6918V12H10.8838C12.6478 12 14.3638 11.772 14.3638 9.672C14.3638 8.64 13.8358 8.028 12.9118 7.692ZM9.1918 4.812H10.6678C11.6638 4.812 12.5758 4.848 12.5758 5.964C12.5758 7.092 11.6638 7.116 10.6558 7.116H9.1918V4.812ZM10.8358 10.8H9.1918V8.316H10.8958C11.8078 8.316 12.8998 8.34 12.8998 9.6C12.8998 10.764 11.9998 10.8 10.8358 10.8Z" fill="#FF5733"/>
</g>
<defs>
<clipPath id="clip0_317_10">
<rect width="16" height="16" fill="white"/>
</clipPath>
</defs>
</svg>
