<svg width="675" height="73" viewBox="0 0 675 73" fill="none" xmlns="http://www.w3.org/2000/svg">
<path d="M22.4477 72.2C38.6477 72.2 43.4477 62.1 43.4477 52.7V0.999995H30.9477V51.3C30.9477 57.3 29.5477 62.1 22.5477 62.1C14.8477 62.1 13.4477 56.6 13.4477 49.4V44.6H0.947656V50.4C0.947656 64.4 8.34766 72.2 22.4477 72.2ZM74.6242 72.2C90.0242 72.2 100.024 61.7 100.024 46C100.024 30.9 90.3242 19.8 74.6242 19.8C58.7242 19.8 49.0242 30.8 49.0242 46C49.0242 62.3 58.6242 72.2 74.6242 72.2ZM74.6242 63.5C65.2242 63.5 61.7242 57.9 61.7242 46C61.7242 34.1 65.3242 28.5 74.6242 28.5C83.7242 28.5 87.3242 34.1 87.3242 46C87.3242 57.9 83.8242 63.5 74.6242 63.5ZM133.046 19.8C124.746 20.1 118.846 23.9 117.046 30V21H105.246V71H117.146V48.1C117.146 34.3 123.046 30.5 132.446 30.5C133.346 30.5 134.246 30.5 134.946 30.6L135.246 19.8H133.046ZM171.298 0.999995V27.2C167.998 22.3 162.798 19.8 156.298 19.8C142.898 19.8 133.898 30.2 133.898 46C133.898 62.3 143.398 72.2 156.498 72.2C163.098 72.2 168.398 69.4 171.298 63.9V71H183.098V0.999995H171.298ZM159.198 63.5C149.498 63.5 146.798 57.5 146.798 46C146.798 34.6 149.798 28.6 159.398 28.6C168.898 28.6 171.598 36.1 171.598 46.1C171.598 57.2 167.598 63.5 159.198 63.5ZM206.191 72.2C214.491 72.2 219.891 68.8 222.491 63.9C222.491 67 222.791 69.1 223.191 71H234.991V70.6C233.991 68.2 233.291 65.3 233.291 62V36.3C233.291 25.4 225.991 19.8 213.191 19.8C206.191 19.8 200.691 21.1 196.891 23.7C193.091 26.3 190.991 30.5 190.691 36.4L202.291 37.9C202.391 31.1 205.591 28.6 212.391 28.6C216.591 28.6 219.091 29.5 220.391 31.3C221.791 33.3 221.891 35.6 221.891 38.9L206.991 41.7C197.891 43.4 188.891 46.4 188.891 57.2C188.891 67.3 196.991 72.2 206.191 72.2ZM208.791 63.3C204.491 63.3 201.091 61.3 201.091 57.1C201.091 52.6 204.191 51 208.891 50L221.891 47.2V51.8C221.891 59.1 217.191 63.3 208.791 63.3ZM281.607 24.9C278.207 21.4 274.107 19.8 267.607 19.8C260.407 19.8 255.007 22.5 252.507 28.6V21H240.707V71H252.607V43.6C252.607 31.5 259.107 29.1 263.507 29.1C266.407 29.1 268.807 29.3 271.007 31.5C273.607 33.9 273.807 37.1 273.807 41.7V71H285.807V40.8C285.807 34.8 285.507 28.9 281.607 24.9ZM355.539 35.1C361.239 32.3 364.939 27.2 364.939 20C364.939 3 350.539 0.999995 337.539 0.999995H312.039V71H338.639C353.339 71 367.639 69.1 367.639 51.6C367.639 43 363.239 37.9 355.539 35.1ZM324.539 11.1H336.839C345.139 11.1 352.739 11.4 352.739 20.7C352.739 30.1 345.139 30.3 336.739 30.3H324.539V11.1ZM338.239 61H324.539V40.3H338.739C346.339 40.3 355.439 40.5 355.439 51C355.439 60.7 347.939 61 338.239 61ZM373.238 13.2H385.138V0.399997H373.238V13.2ZM373.238 71H385.138V21H373.238V71ZM420.964 19.8C412.664 20.1 406.764 23.9 404.964 30V21H393.164V71H405.064V48.1C405.064 34.3 410.964 30.5 420.364 30.5C421.264 30.5 422.164 30.5 422.864 30.6L423.164 19.8H420.964ZM457.98 71H471.58L451.38 39.6L470.98 21H455.68L437.88 39.2V0.999995H425.98V71H437.88V52.3L443.38 47.2L457.98 71ZM514.641 25.1C511.141 21.3 506.841 19.8 500.341 19.8C493.641 19.8 488.141 22.6 485.441 28.4V0.999995H473.641V71H485.541V43.2C485.541 31.3 492.141 29.1 496.441 29.1C499.341 29.1 501.741 29.3 504.041 31.6C506.541 34 506.741 36.8 506.741 41.4V71H518.741V40.8C518.741 34.6 518.441 29.2 514.641 25.1ZM567.179 28.1C562.979 22.8 556.279 19.8 548.379 19.8C540.779 19.8 534.779 22.2 530.379 26.8C525.879 31.6 523.679 38.2 523.679 45.9C523.679 54 525.779 60.6 530.379 65.3C534.679 69.7 540.679 72.2 548.479 72.2C561.279 72.2 569.479 66.4 572.079 55L560.579 54.1C559.479 60.2 555.679 63.3 548.379 63.3C540.079 63.3 535.879 58.6 535.679 49.3H572.879C573.179 40.7 571.179 33.1 567.179 28.1ZM548.379 28.7C552.779 28.7 555.779 29.9 557.979 32.6C559.679 34.7 560.579 37.6 560.779 40.4H535.779C535.979 38 536.679 35.3 538.279 33.1C540.279 30.3 543.679 28.7 548.379 28.7ZM593.043 72.2C601.343 72.2 606.743 68.8 609.343 63.9C609.343 67 609.643 69.1 610.043 71H621.843V70.6C620.843 68.2 620.143 65.3 620.143 62V36.3C620.143 25.4 612.843 19.8 600.043 19.8C593.043 19.8 587.543 21.1 583.743 23.7C579.943 26.3 577.843 30.5 577.543 36.4L589.143 37.9C589.243 31.1 592.443 28.6 599.243 28.6C603.443 28.6 605.943 29.5 607.243 31.3C608.643 33.3 608.743 35.6 608.743 38.9L593.843 41.7C584.743 43.4 575.743 46.4 575.743 57.2C575.743 67.3 583.843 72.2 593.043 72.2ZM595.643 63.3C591.343 63.3 587.943 61.3 587.943 57.1C587.943 52.6 591.043 51 595.743 50L608.743 47.2V51.8C608.743 59.1 604.043 63.3 595.643 63.3ZM662.259 0.999995V27.2C658.959 22.3 653.759 19.8 647.259 19.8C633.859 19.8 624.859 30.2 624.859 46C624.859 62.3 634.359 72.2 647.459 72.2C654.059 72.2 659.359 69.4 662.259 63.9V71H674.059V0.999995H662.259ZM650.159 63.5C640.459 63.5 637.759 57.5 637.759 46C637.759 34.6 640.759 28.6 650.359 28.6C659.859 28.6 662.559 36.1 662.559 46.1C662.559 57.2 658.559 63.5 650.159 63.5Z" fill="black"/>
</svg>
